<svg xmlns="http://www.w3.org/2000/svg" viewBox="0 0 24 24" fill="none" stroke="currentColor" stroke-width="1.8" stroke-linecap="round" stroke-linejoin="round">
  <circle cx="12" cy="12" r="3.2"/>
  <path d="M19.4 12a7.4 7.4 0 0 0-.1-1.1l2.2-1.7-2-3.4-2.7 1.1a7.8 7.8 0 0 0-1.8-1L14.6 3h-4l-.4 2.9a7.8 7.8 0 0 0-1.8 1L5.7 5.8l-2 3.4 2.2 1.7A7.4 7.4 0 0 0 5.8 12c0 .4 0 .8.1 1.1l-2.2 1.7 2 3.4 2.7-1.1c.6.4 1.2.7 1.8 1l.4 2.9h4l.4-2.9c.6-.3 1.2-.6 1.8-1l2.7 1.1 2-3.4-2.2-1.7c.1-.3.1-.7.1-1.1Z"/>
</svg>
