<?xml version="1.0" encoding="iso-8859-1"?>
<!-- Uploaded to: SVG Repo, www.svgrepo.com, Generator: SVG Repo Mixer Tools -->
<!DOCTYPE svg PUBLIC "-//W3C//DTD SVG 1.1//EN" "http://www.w3.org/Graphics/SVG/1.1/DTD/svg11.dtd">
<svg fill="#000000" version="1.1" id="Capa_1" xmlns="http://www.w3.org/2000/svg" xmlns:xlink="http://www.w3.org/1999/xlink" 
	 width="800px" height="800px" viewBox="0 0 593.321 593.321"
	 xml:space="preserve">
<g>
	<g>
		<path d="M250.582,575.765c10.984,10.999,25.594,17.057,41.139,17.057h43.574c32.054,0,58.135-26.077,58.14-58.131l0.054-268.62
			c0.003-15.532-6.043-30.135-17.024-41.119c-10.981-10.983-25.584-17.033-41.115-17.033h-90.812
			c-32.058,0-58.14,26.082-58.14,58.14v43.293c0,28.392,20.459,52.096,47.407,57.146l-0.223,168.106
			C233.559,550.148,239.597,564.767,250.582,575.765z M229.237,309.352v-43.293c0-8.45,6.85-15.3,15.3-15.3h90.812
			c8.451,0,15.302,6.852,15.3,15.303l-0.054,268.622c-0.002,8.449-6.851,15.298-15.301,15.298h-43.573
			c-8.458,0-15.312-6.863-15.3-15.32l0.258-194.69c0.012-8.458-6.842-15.32-15.3-15.32h-16.842
			C236.087,324.651,229.237,317.801,229.237,309.352z"/>
		<path d="M335.295,593.321h-43.574c-15.679,0-30.415-6.109-41.493-17.203c-11.079-11.093-17.168-25.837-17.147-41.515
			l0.222-167.692c-27.494-5.354-47.406-29.494-47.406-57.56v-43.293c0-32.334,26.306-58.64,58.64-58.64h90.812
			c15.665,0,30.393,6.101,41.469,17.18s17.174,25.807,17.171,41.473l-0.054,268.62C393.93,567.02,367.624,593.321,335.295,593.321z
			 M244.537,208.418c-31.783,0-57.64,25.857-57.64,57.64v43.293c0,27.724,19.766,51.551,46.999,56.655l0.408,0.076l-0.223,168.522
			c-0.021,15.41,5.964,29.902,16.854,40.806c10.89,10.904,25.375,16.91,40.786,16.91h43.574c31.777,0,57.635-25.854,57.64-57.631
			l0.054-268.62c0.003-15.398-5.991-29.876-16.878-40.766c-10.888-10.89-25.364-16.887-40.762-16.887H244.537z M335.294,550.481
			h-43.573c-4.224,0-8.195-1.646-11.18-4.636c-2.985-2.988-4.626-6.961-4.621-11.186l0.258-194.69
			c0.005-3.956-1.531-7.678-4.327-10.478c-2.796-2.8-6.516-4.342-10.473-4.342h-16.842c-4.22,0.001-8.188-1.643-11.172-4.627
			c-2.984-2.984-4.627-6.952-4.627-11.172v-43.293c0-8.712,7.088-15.8,15.8-15.8h90.812c4.221,0,8.189,1.644,11.174,4.629
			s4.627,6.954,4.626,11.174l-0.054,268.622C351.093,543.395,344.005,550.481,335.294,550.481z M244.537,251.258
			c-8.161,0-14.8,6.639-14.8,14.8v43.293c0,3.953,1.54,7.669,4.335,10.465c2.795,2.795,6.512,4.334,10.465,4.334h16.842
			c4.225,0,8.195,1.646,11.18,4.636c2.985,2.988,4.625,6.961,4.62,11.186l-0.258,194.69c-0.005,3.956,1.532,7.678,4.328,10.478
			s6.515,4.342,10.472,4.342h43.573c8.159,0,14.799-6.639,14.801-14.798l0.054-268.622c0.001-3.954-1.538-7.671-4.334-10.467
			c-2.795-2.796-6.512-4.336-10.466-4.336H244.537z"/>
	</g>
	<g>
		<path d="M406.925,93.386c0-12.521-2.462-24.689-7.317-36.169c-4.681-11.066-11.372-20.995-19.889-29.512
			s-18.446-15.208-29.512-19.889C338.729,2.961,326.56,0.5,314.039,0.5s-24.689,2.461-36.168,7.317
			c-11.066,4.681-20.996,11.372-29.512,19.889S233.15,46.151,228.47,57.218c-4.855,11.479-7.317,23.648-7.317,36.168
			c0,12.52,2.461,24.689,7.317,36.168c4.681,11.066,11.372,20.995,19.889,29.512s18.446,15.208,29.512,19.889
			c11.479,4.856,23.648,7.317,36.168,7.317s24.689-2.461,36.169-7.317c11.065-4.68,20.995-11.372,29.512-19.889
			s15.208-18.445,19.889-29.512C404.463,118.075,406.925,105.906,406.925,93.386z M314.039,143.431
			c-27.639,0-50.046-22.407-50.046-50.045c0-27.64,22.407-50.046,50.046-50.046c27.639,0,50.046,22.406,50.046,50.046
			C364.085,121.025,341.678,143.431,314.039,143.431z"/>
		<path d="M314.039,186.772c-12.589,0-24.823-2.475-36.363-7.357c-11.125-4.705-21.108-11.433-29.671-19.996
			c-8.562-8.562-15.29-18.545-19.996-29.67c-4.881-11.541-7.356-23.775-7.356-36.363c0-12.589,2.475-24.823,7.356-36.363
			c4.706-11.126,11.433-21.109,19.996-29.671c8.562-8.562,18.544-15.29,29.671-19.996C289.216,2.475,301.45,0,314.039,0
			s24.822,2.475,36.362,7.356c11.127,4.706,21.109,11.434,29.671,19.996c8.562,8.562,15.29,18.545,19.996,29.67
			c4.881,11.542,7.356,23.776,7.356,36.364c0,12.586-2.475,24.821-7.355,36.364c-4.706,11.125-11.434,21.108-19.996,29.67
			s-18.545,15.29-29.671,19.996C338.862,184.297,326.628,186.772,314.039,186.772z M314.039,1c-12.454,0-24.558,2.448-35.974,7.277
			c-11.007,4.656-20.883,11.312-29.354,19.782c-8.471,8.471-15.126,18.347-19.782,29.354c-4.829,11.416-7.277,23.52-7.277,35.974
			c0,12.454,2.448,24.557,7.277,35.974c4.655,11.006,11.311,20.882,19.782,29.353c8.472,8.472,18.348,15.127,29.354,19.782
			c11.416,4.829,23.52,7.278,35.974,7.278s24.558-2.449,35.975-7.278c11.006-4.655,20.882-11.311,29.353-19.782
			s15.127-18.347,19.781-29.353c4.829-11.418,7.277-23.522,7.277-35.974c0-12.453-2.448-24.557-7.278-35.974
			c-4.655-11.006-11.311-20.882-19.781-29.353c-8.471-8.47-18.346-15.126-29.353-19.782C338.596,3.448,326.493,1,314.039,1z
			 M314.039,143.931c-27.871,0-50.546-22.675-50.546-50.545c0-27.871,22.675-50.546,50.546-50.546s50.546,22.675,50.546,50.546
			C364.585,121.256,341.91,143.931,314.039,143.931z M314.039,43.84c-27.32,0-49.546,22.226-49.546,49.546
			c0,27.319,22.226,49.545,49.546,49.545c27.319,0,49.546-22.226,49.546-49.545C363.585,66.066,341.358,43.84,314.039,43.84z"/>
	</g>
</g>
</svg>